# xmcd
#
# Track frame offsets:
#	150
#	16876
#	32386
#	48509
#	63171
#	80005
#	95996
#	112526
#	124912
#	139976
#	153996
#	169268
#	183204
#	198896
#	213035
#	226232
#	238880
#	254839
#	271975
#	286805
#
# Disc length: 4011 seconds
#
# Revision: 0
# Processed by: cddbd v1.5.2PL0 Copyright (c) Steve Scherf et al.
# Submitted via: EasyCDDAExtractor 16.0.6.1
#
DISCID=130fa914
DTITLE=Καζαντζίδης Στέλιος - Τραγούδια 45 στροφές-Καζαντζίδης Στέλιος 1
DYEAR=1996
DGENRE=Λαϊκή
TTITLE0=Καζαντζίδης Στέλιος-Χρηστάκης - Η αγάπη σου μού έγινε συνήθεια [γρήγορ
TTITLE0=ο, Σ. Καζαντζίδη]
TTITLE1=Καζαντζίδης Στέλιος-Γκίκα Βούλα - Εγώ καλός γεννήθηκα [ζεϊμπέκικο, Σ. 
TTITLE1=Καζαντζίδη-Χ. Κολοκοτρώνη]
TTITLE2=Καζαντζίδης Στέλιος - Κλαίει απόψε ο ουρανός [γρήγορο, Γ. Κόρου-Π. Κοκ
TTITLE2=κινόπουλου]
TTITLE3=Καζαντζίδης Στέλιος-Μαρινέλλα - Ένα τραγούδι για την μάννα [χασάπικο, 
TTITLE3=Θ. Δερβενιώτη-Κ. Βίρβου]
TTITLE4=Καζαντζίδης Στέλιος-Ρεπάνης Αντώνης - Ναυάγιο στη ζωή [ζεϊμπέκικο, Σ. 
TTITLE4=Καζανντζίδη-Ε. Τσαγκλή]
TTITLE5=Καζαντζίδης Στέλιος - Έρημος μέσ' στην ξενητειά [γρήγορο, Ευαγ. Σκουρτ
TTITLE5=ανιώτη]
TTITLE6=Καζαντζίδης Στέλιος - Η φτώχεια είναι αβάσταχτη [ζεϊμπέκικο, Χαρίκλεια
TTITLE6=Λειβάδη]
TTITLE7=Καζαντζίδης Στέλιος-Μαρινέλλα - Η επιστροφή της Μαντουμπάλας [γρήγορο,
TTITLE7=Σ. Καζαντζίδη]
TTITLE8=Καζαντζίδης Στέλιος-Μαρινέλλα - Η ζωή μας είναι λίγη [ζεϊμπέκικο, Σ. Κ
TTITLE8=αζαντζίδη]
TTITLE9=Καζαντζίδης Στέλιος - Τον κόσμο τον δοκίμασα [ζεϊμπέκικο, Κ. Ζήτη]
TTITLE10=Καζαντζίδης Στέλιος - Έλα μάννα να με δεις [γρήγορο, Σ. Καζαντζίδη-Χρ
TTITLE10=Κολοκοτρώνη]
TTITLE11=Καζαντζίδης Στέλιος - Αν δεν με θέλεις για άντρα σου [ζεϊμπέκικο, Γ. 
TTITLE11=Μητσάκη]
TTITLE12=Καζαντζίδης Στέλιος-Μαρινέλλα - Ο απόκληρος της μοίρας [ζεϊμπέκικο, Π
TTITLE12=Τριανταφυλλίδη-Ι. Ιωαννίδη]
TTITLE13=Καζαντζίδης Στέλιος-Γκίκα Βούλα - Από μικρός στην ξενητειά [γρήγορο, 
TTITLE13=Σ. Καζαντζίδη-Χρ. Κολοκοτρώνη]
TTITLE14=Καζαντζίδης Στέλιος - Ο βιοπαλαιστής [ζεϊμπέκικο, Γ. Μητσάκη-Ηρ. Παπα
TTITLE14=σιδέρη]
TTITLE15=Καζαντζίδης Στέλιος - Το παιδί της αμαρτίας [χασάπικο, Σ. Καζαντζίδη]
TTITLE16=Καζαντζίδης Στέλιος - Ο τραγουδιστής του πόνου [γρήγορο, Σ. Καζαντζίδ
TTITLE16=η]
TTITLE17=Καζαντζίδης Στέλιος - Όλα μάταια, όλα ψεύτικα [ζεϊμπέκικο, Χρ. Κολοκο
TTITLE17=τρώνη- Σ. Καζαντζίδη]
TTITLE18=Καζαντζίδης Στέλιος - Κλάψε καρδιά μου ορφανή [γρήγορο, Σ. Καζαντζίδη
TTITLE18=Χρ. Κολοκοτρώνη]
TTITLE19=Καζαντζίδης Στέλιος - Κι αν ξενητεύτηκες [ζεϊμπέκικο, Σ. Καζαντζίδη-Χ
TTITLE19=ρ. Κολοκοτρώνη]
EXTD=
EXTT0=
EXTT1=
EXTT2=
EXTT3=
EXTT4=
EXTT5=
EXTT6=
EXTT7=
EXTT8=
EXTT9=
EXTT10=
EXTT11=
EXTT12=
EXTT13=
EXTT14=
EXTT15=
EXTT16=
EXTT17=
EXTT18=
EXTT19=
PLAYORDER=
